<svg width="202" height="202" viewBox="0 0 202 202" fill="none" xmlns="http://www.w3.org/2000/svg">
<rect x="26.2012" y="86.2114" width="86.7396" height="8.10897" rx="4.05448" transform="rotate(-47.7796 26.2012 86.2114)" fill="#FF3333"/>
<rect x="112.41" y="174.956" width="86.7396" height="8.10897" rx="4.05448" transform="rotate(-47.7796 112.41 174.956)" fill="#FF3333"/>
<rect x="30.4277" y="96.3516" width="142.837" height="8.45188" rx="4.22594" fill="#FF3333" fill-opacity="0.5"/>
<rect x="30.6641" y="109.875" width="89.5014" height="8.45188" rx="4.22594" transform="rotate(46.7192 30.6641 109.875)" fill="#FF3333" fill-opacity="0.2"/>
<rect x="116.873" y="21.9751" width="89.5014" height="8.45188" rx="4.22594" transform="rotate(46.7192 116.873 21.9751)" fill="#FF3333" fill-opacity="0.2"/>
<rect x="105.648" y="28.7363" width="142.837" height="8.45188" rx="4.22594" transform="rotate(90 105.648 28.7363)" fill="#FF3333"/>
<rect x="90.4355" width="21.9749" height="21.9749" rx="10.9874" fill="white"/>
<rect x="90.4355" y="180.025" width="21.9749" height="21.9749" rx="10.9874" fill="white"/>
<rect x="202" y="89.5898" width="21.9749" height="21.9749" rx="10.9874" transform="rotate(90 202 89.5898)" fill="white"/>
<rect x="21.9746" y="89.5898" width="21.9749" height="21.9749" rx="10.9874" transform="rotate(90 21.9746 89.5898)" fill="white"/>
</svg>
