<svg width="203" height="131" viewBox="0 0 203 131" fill="none" xmlns="http://www.w3.org/2000/svg">
<path d="M25 80.5C25 72.2157 31.7157 65.5 40 65.5H175.966C182.952 65.5 189.014 70.323 190.583 77.1307L200.517 120.229C201.483 124.42 197.057 127.794 193.271 125.752L169.833 113.111C167.645 111.93 165.199 111.312 162.713 111.312H40C31.7157 111.312 25 104.597 25 96.3125V80.5Z" fill="#FF3333"/>
<path d="M178 15C178 6.71573 171.284 0 163 0H27.0339C20.0477 0 13.9865 4.82303 12.4172 11.6307L2.48285 54.7287C1.51668 58.9202 5.94293 62.2945 9.72873 60.2525L33.1665 47.6105C35.3545 46.4304 37.8015 45.8125 40.2875 45.8125H163C171.284 45.8125 178 39.0968 178 30.8125V15Z" fill="white"/>
</svg>
