<svg width="104" height="120" viewBox="0 0 104 120" fill="none" xmlns="http://www.w3.org/2000/svg">
<path d="M76.0966 44.9647C75.8823 46.4565 74.9003 47.7273 73.4667 48.1757C67.7129 49.9752 58.8983 52.0858 49.3583 54.3702C37.4587 57.2195 24.4303 60.3391 14.8052 63.4624C13.692 63.8236 12.6796 61.9486 13.616 61.2447L30.2496 48.7419C31.3676 47.9016 31.9633 46.5269 31.7639 45.1393C31.0687 40.3008 29.9271 35.3504 28.3389 30.2881C25.4011 20.8767 21.4683 13.432 16.5404 7.95371C15.4753 6.7696 16.0115 4.79154 17.5694 4.47552C40.5046 -0.176706 64.6881 -0.158437 90.1199 4.53033C91.7037 4.82233 92.2763 6.83322 91.2005 8.0359C86.3072 13.5063 82.3989 20.9237 79.4758 30.2881C77.9092 35.2949 76.7828 40.1871 76.0966 44.9647Z" stroke="#FF3333" stroke-width="2"/>
<path d="M84.9257 56.6816C88.9715 54.2606 91.802 51.3129 93.4172 47.8386C94.3375 45.8874 94.9509 43.557 95.2576 40.8474C95.3745 39.8139 96.781 39.5344 97.16 40.5026C98.0294 42.7236 98.8987 45.2947 99.7681 48.2159C101.728 54.7401 102.795 60.5175 102.967 65.5482C103.343 76.6158 100.489 84.7435 94.4051 89.9314C88.9637 94.6005 80.5977 97.1316 69.3071 97.5246C69.1973 97.5246 65.9121 97.5403 59.4514 97.5717C53.0063 97.5875 47.4159 97.6818 42.6802 97.8547C29.4608 98.3106 19.6129 102.61 13.1365 110.754C11.3975 112.965 9.8559 115.516 8.5118 118.407C8.14212 119.202 6.98456 119.199 6.64868 118.389C5.24763 115.01 4.46214 113.078 4.29222 112.593C2.23796 107.154 1.14813 102.618 1.02268 98.9866C0.88155 94.7577 1.39903 91.2048 2.57513 88.3279C3.79828 85.3409 5.88389 82.7626 8.83198 80.5932C14.2107 76.6158 24.6231 73.0157 40.0692 69.7929C52.3948 67.2147 61.6389 65.053 67.8017 63.308C70.4205 62.5691 72.8354 61.8145 75.0465 61.0442C79.0766 59.645 82.3697 58.1908 84.9257 56.6816Z" stroke="#FF3333" stroke-width="2"/>
</svg>
