<svg width="577" height="224" viewBox="0 0 577 224" fill="none" xmlns="http://www.w3.org/2000/svg">
<path d="M76.569 96.6606C76.3506 98.176 75.3493 99.4669 73.8876 99.9224C68.021 101.75 59.0336 103.894 49.3065 106.215C37.1736 109.109 23.8897 112.278 14.0759 115.451C12.9409 115.818 11.9086 113.913 12.8634 113.198L29.8231 100.498C30.963 99.6439 31.5704 98.2476 31.3671 96.838C30.6583 91.9229 29.4943 86.8941 27.8749 81.7517C24.8795 72.1914 20.8696 64.6287 15.8452 59.0638C14.7591 57.8609 15.3058 55.8516 16.8943 55.5305C40.2792 50.8047 64.9368 50.8232 90.8673 55.5862C92.4822 55.8828 93.066 57.9256 91.9691 59.1473C86.9799 64.7043 82.995 72.2391 80.0145 81.7517C78.4173 86.8377 77.2688 91.8074 76.569 96.6606Z" fill="white"/>
<path d="M85.5713 108.563C89.6964 106.104 92.5824 103.109 94.2293 99.58C95.1676 97.5979 95.7931 95.2306 96.1058 92.4782C96.225 91.4283 97.6591 91.1444 98.0455 92.1278C98.9319 94.384 99.8183 96.9958 100.705 99.9633C102.703 106.591 103.791 112.46 103.966 117.57C104.35 128.813 101.44 137.069 95.2366 142.339C89.6885 147.082 81.1584 149.653 69.6465 150.052C69.5345 150.052 66.1849 150.068 59.5975 150.1C53.0261 150.116 47.3261 150.212 42.4974 150.388C29.0189 150.851 18.9779 155.219 12.3745 163.491C10.6014 165.737 9.02954 168.328 7.65909 171.265C7.28216 172.073 6.1019 172.07 5.75944 171.247C4.33092 167.815 3.53003 165.852 3.35677 165.359C1.26224 159.834 0.151037 155.227 0.0231269 151.538C-0.120773 147.242 0.406853 143.633 1.60601 140.71C2.85314 137.676 4.97965 135.057 7.98555 132.853C13.4697 128.813 24.0863 125.156 39.8353 121.882C52.4025 119.263 61.8279 117.067 68.1115 115.294C70.7817 114.544 73.2439 113.777 75.4984 112.995C79.6075 111.573 82.9652 110.096 85.5713 108.563Z" fill="white"/>
<path d="M183.45 165L146.55 68.4H167.7L194.4 142.35L221.25 68.4H242.4L205.65 165H183.45ZM280.057 166.5C267.757 166.5 258.007 163.45 250.807 157.35C243.607 151.15 240.007 141.8 240.007 129.3C240.007 118 243.007 109.05 249.007 102.45C255.107 95.75 264.157 92.4 276.157 92.4C287.157 92.4 295.557 95.3 301.357 101.1C307.257 106.8 310.207 114.3 310.207 123.6V136.5H258.757C259.857 142.2 262.457 146.1 266.557 148.2C270.757 150.3 276.657 151.35 284.257 151.35C288.057 151.35 291.907 151 295.807 150.3C299.807 149.6 303.207 148.7 306.007 147.6V162C302.707 163.5 298.857 164.6 294.457 165.3C290.057 166.1 285.257 166.5 280.057 166.5ZM258.757 124.05H292.507V120.15C292.507 116.05 291.307 112.85 288.907 110.55C286.507 108.15 282.457 106.95 276.757 106.95C270.057 106.95 265.357 108.3 262.657 111C260.057 113.7 258.757 118.05 258.757 124.05ZM348.623 166.5C343.323 166.5 338.273 166.1 333.473 165.3C328.673 164.6 324.823 163.7 321.923 162.6V145.8C325.423 147.2 329.373 148.3 333.773 149.1C338.173 149.8 342.223 150.15 345.923 150.15C350.923 150.15 354.423 149.85 356.423 149.25C358.523 148.65 359.573 147.3 359.573 145.2C359.573 142.8 357.973 141.05 354.773 139.95C351.673 138.85 347.023 137.3 340.823 135.3C334.323 133.1 329.323 130.45 325.823 127.35C322.323 124.25 320.573 119.65 320.573 113.55C320.573 106.75 323.023 101.55 327.923 97.95C332.923 94.25 340.923 92.4 351.923 92.4C356.323 92.4 360.473 92.75 364.373 93.45C368.273 94.05 371.573 94.8 374.273 95.7V112.35C371.573 111.05 368.473 110.1 364.973 109.5C361.473 108.8 358.223 108.45 355.223 108.45C350.923 108.45 347.473 108.75 344.873 109.35C342.373 109.95 341.123 111.25 341.123 113.25C341.123 115.45 342.473 117 345.173 117.9C347.973 118.8 352.273 120.15 358.073 121.95C363.773 123.65 368.223 125.5 371.423 127.5C374.623 129.5 376.873 131.9 378.173 134.7C379.473 137.4 380.123 140.8 380.123 144.9C380.123 159.3 369.623 166.5 348.623 166.5ZM415.42 166.5C410.12 166.5 405.07 166.1 400.27 165.3C395.47 164.6 391.62 163.7 388.72 162.6V145.8C392.22 147.2 396.17 148.3 400.57 149.1C404.97 149.8 409.02 150.15 412.72 150.15C417.72 150.15 421.22 149.85 423.22 149.25C425.32 148.65 426.37 147.3 426.37 145.2C426.37 142.8 424.77 141.05 421.57 139.95C418.47 138.85 413.82 137.3 407.62 135.3C401.12 133.1 396.12 130.45 392.62 127.35C389.12 124.25 387.37 119.65 387.37 113.55C387.37 106.75 389.82 101.55 394.72 97.95C399.72 94.25 407.72 92.4 418.72 92.4C423.12 92.4 427.27 92.75 431.17 93.45C435.07 94.05 438.37 94.8 441.07 95.7V112.35C438.37 111.05 435.27 110.1 431.77 109.5C428.27 108.8 425.02 108.45 422.02 108.45C417.72 108.45 414.27 108.75 411.67 109.35C409.17 109.95 407.92 111.25 407.92 113.25C407.92 115.45 409.27 117 411.97 117.9C414.77 118.8 419.07 120.15 424.87 121.95C430.57 123.65 435.02 125.5 438.22 127.5C441.42 129.5 443.67 131.9 444.97 134.7C446.27 137.4 446.92 140.8 446.92 144.9C446.92 159.3 436.42 166.5 415.42 166.5ZM495.829 166.5C483.529 166.5 473.779 163.45 466.579 157.35C459.379 151.15 455.779 141.8 455.779 129.3C455.779 118 458.779 109.05 464.779 102.45C470.879 95.75 479.929 92.4 491.929 92.4C502.929 92.4 511.329 95.3 517.129 101.1C523.029 106.8 525.979 114.3 525.979 123.6V136.5H474.529C475.629 142.2 478.229 146.1 482.329 148.2C486.529 150.3 492.429 151.35 500.029 151.35C503.829 151.35 507.679 151 511.579 150.3C515.579 149.6 518.979 148.7 521.779 147.6V162C518.479 163.5 514.629 164.6 510.229 165.3C505.829 166.1 501.029 166.5 495.829 166.5ZM474.529 124.05H508.279V120.15C508.279 116.05 507.079 112.85 504.679 110.55C502.279 108.15 498.229 106.95 492.529 106.95C485.829 106.95 481.129 108.3 478.429 111C475.829 113.7 474.529 118.05 474.529 124.05ZM559.877 166.5C552.977 166.5 547.927 164.9 544.727 161.7C541.627 158.5 540.077 153.4 540.077 146.4V63.9H560.327V144.75C560.327 147.25 560.827 149 561.827 150C562.827 150.9 564.277 151.35 566.177 151.35C568.777 151.35 571.127 151 573.227 150.3V164.25C569.427 165.75 564.977 166.5 559.877 166.5Z" fill="white"/>
</svg>
