<svg width="551" height="432" viewBox="0 0 551 432" fill="none" xmlns="http://www.w3.org/2000/svg">
<path d="M283.188 317.036C273.139 263.924 262.525 211.705 259.595 157.502C257.742 123.233 252.567 76.7712 266.897 43.7498C268.453 40.1647 273.798 48.2194 275.464 51.7546C286.795 75.7993 293.344 102.253 298.074 128.292C308.024 183.07 314.001 245.203 305.376 300.746C302.847 317.037 295.522 316.262 289.086 301.588C267.105 251.471 265.24 182.058 274.762 129.134C280.153 99.1666 295.318 43.8469 326.442 28.0211C340.856 20.6917 346.474 92.738 346.664 95.9916C350.252 157.275 333.883 217.737 308.747 273.22C292.573 308.921 305.49 231.54 305.938 229.124C317.952 164.389 338.533 88.2073 380.369 35.6046C385.985 28.5425 393.524 21.0387 398.064 32.9363C406.29 54.4958 407.085 81.886 408.456 104.418C412.43 169.734 411.39 244.768 387.11 306.644C382.068 319.492 381.064 307.431 380.65 301.448C378.528 270.834 380.705 239.509 384.863 209.182C391.732 159.08 402.782 109.104 421.095 61.8659C422.452 58.3664 443.875 -1.71045 460.136 2.18111C474.692 5.66461 469.228 68.903 469.124 72.539C467.65 124.113 459.417 173.335 443.845 222.664C437.529 242.675 429.995 262.296 422.218 281.787C417.322 294.058 398.806 341.712 384.301 356.217C367.083 373.435 359.994 312.366 357.899 288.106C352.941 230.696 351.409 169.161 363.517 112.422C363.909 110.581 379.582 68.0687 382.054 100.205C385.221 141.377 369.756 188.035 356.073 225.613C340.107 269.465 319.98 313.691 285.716 346.527C278.436 353.503 258.705 369.718 246.253 367.873C231.318 365.661 225.409 321.637 224.205 316.193C213.045 265.719 203.529 213.113 202.438 161.294C202.024 141.626 201.818 110.317 223.363 99.0812C243.811 88.4165 278.182 92.4194 299.619 91.919C335.38 91.0841 371.069 89.8401 406.771 87.5655C407.411 87.5247 439.578 81.0541 440.194 89.5316C441.405 106.182 429.194 133.457 421.938 147.11C402.015 184.593 368.625 208.826 332.761 229.966C266.642 268.942 194.813 296.423 122.249 320.687C84.0225 333.47 44.8481 342.532 6.5311 354.813C4.95567 355.318 1.61094 355.321 2.03721 356.92C3.24722 361.457 11.4477 356.563 16.0807 355.796C67.1085 347.346 118.405 334.444 168.312 321.249C220.219 307.525 271.698 292.079 321.526 271.956C349.363 260.715 379.697 248.019 403.4 228.843C420.694 214.852 428.071 191.29 429.24 169.86C430.944 138.619 419.657 132.282 389.357 133.066C363.47 133.737 337.343 136.179 311.977 141.492C305.112 142.93 287.953 145.803 281.783 152.166C276.224 157.899 301.988 200.289 303.41 203.003C327.736 249.429 354.915 292.961 400.591 320.968C410.204 326.862 421.064 332.008 432.189 334.31C433.703 334.623 436.727 335.712 436.824 334.169C437.264 327.129 427.77 323.247 422.359 318.721C392.252 293.541 359.636 271.324 327.565 248.785C287.459 220.598 246.472 193.393 208.196 162.698C192.792 150.345 174.605 136.19 164.099 118.742C158.856 110.034 168.611 108.334 174.772 104.979C178.379 103.016 192.164 91.7946 197.242 94.5872C201.394 96.8712 203.09 109.034 203.561 111.439C207.993 134.064 208.91 157.544 208.757 180.533C208.268 254.32 187.262 325.761 185.445 399.05C185.053 414.879 185.442 437.211 207.493 427.98C244.157 412.632 276.569 372.662 299.759 342.876C359.769 265.797 405.999 178.237 423.061 81.6672C424.388 74.1593 434.567 42.9342 418.567 42.0646C368.651 39.3518 318.418 70.9944 285.435 104.979C233.582 158.408 192.213 221.403 157.077 286.702C155.038 290.492 146.922 312.804 139.102 311.98C130.888 311.116 117.875 261.295 116.351 256.93C105.337 225.382 96.7785 192.905 84.0511 161.996C82.3623 157.895 90.2496 168.345 93.4603 171.405C114.7 191.649 136.562 211.511 159.605 229.686C250.497 301.377 355.614 368.526 469.685 395.399C481.764 398.244 518.83 409.318 527.264 391.747C539.855 365.516 526.993 326.827 518.557 301.869C501.559 251.583 478.87 203.335 461.821 153.008C458.152 142.178 455.311 105.817 439.351 116.776C325.472 194.973 228.348 214.217 98.2891 256.93C38.7178 276.494 25.2891 270.728 25.2891 256.93C25.2891 238.112 22.2169 234.334 75.3442 208.339C117.951 187.493 160.733 166.719 204.123 147.531C218.187 141.312 233.791 133.587 249.203 130.539C260.886 128.227 275.956 129.452 287.401 131.662C327.442 139.394 355.245 179.899 382.897 206.373C408.95 231.319 435.755 255.04 464.489 276.872C477.408 286.687 493.927 300.962 510.131 306.363C536.882 315.28 547.486 229.853 548.048 215.361C548.551 202.393 552.467 155.956 538.498 147.11C528.959 141.068 510.807 146.469 500.581 147.672" stroke="#FC3232" stroke-width="3" stroke-linecap="round"/>
</svg>
